<svg id="Calque_1" data-name="Calque 1" xmlns="http://www.w3.org/2000/svg" viewBox="0 0 160 320"><defs><style>.cls-1{opacity:0.5;}.cls-2{opacity:0.25;}</style></defs><rect x="-0.01" width="31.99" height="15.88"/><polygon class="cls-1" points="40.01 7.94 31.98 7.94 31.98 15.88 -0.01 15.88 -0.01 24 40.01 24 40.01 7.94"/><rect class="cls-2" x="31.98" width="8.02" height="7.94"/><rect x="23.99" y="32" width="31.99" height="15.88"/><polygon class="cls-1" points="64 39.94 55.98 39.94 55.98 47.88 24 47.88 24 56 64 56 64 39.94"/><rect class="cls-2" x="55.98" y="32" width="8.02" height="7.94"/><rect x="71.99" y="32" width="31.99" height="15.88"/><polygon class="cls-1" points="112 39.94 103.98 39.94 103.98 47.88 72 47.88 72 56 112 56 112 39.94"/><rect class="cls-2" x="103.98" y="32" width="8.02" height="7.94"/><rect x="119.99" y="32" width="31.99" height="15.88"/><polygon class="cls-1" points="160 39.94 151.98 39.94 151.98 47.88 120 47.88 120 56 160 56 160 39.94"/><rect class="cls-2" x="151.98" y="32" width="8.02" height="7.94"/><rect x="-0.01" y="32" width="7.99" height="15.88"/><polygon class="cls-1" points="16 39.94 7.98 39.94 7.98 47.88 -0.01 47.88 -0.01 56 16 56 16 39.94"/><rect class="cls-2" x="7.98" y="32" width="8.02" height="7.94"/><rect x="23.99" y="96" width="31.99" height="15.88"/><polygon class="cls-1" points="64 103.94 55.98 103.94 55.98 111.88 24 111.88 24 120 64 120 64 103.94"/><rect class="cls-2" x="55.98" y="96" width="8.02" height="7.94"/><rect x="71.99" y="96" width="31.99" height="15.88"/><polygon class="cls-1" points="112 103.94 103.98 103.94 103.98 111.88 72 111.88 72 120 112 120 112 103.94"/><rect class="cls-2" x="103.98" y="96" width="8.02" height="7.94"/><rect x="119.99" y="96" width="31.99" height="15.88"/><polygon class="cls-1" points="160 103.94 151.98 103.94 151.98 111.88 120 111.88 120 120 160 120 160 103.94"/><rect class="cls-2" x="151.98" y="96" width="8.02" height="7.94"/><rect x="-0.01" y="96" width="7.99" height="15.88"/><polygon class="cls-1" points="16 103.94 7.98 103.94 7.98 111.88 -0.01 111.88 -0.01 120 16 120 16 103.94"/><rect class="cls-2" x="7.98" y="96" width="8.02" height="7.94"/><rect x="23.99" y="160" width="31.99" height="15.88"/><polygon class="cls-1" points="64 167.94 55.98 167.94 55.98 175.88 24 175.88 24 184 64 184 64 167.94"/><rect class="cls-2" x="55.98" y="160" width="8.02" height="7.94"/><rect x="71.99" y="160" width="31.99" height="15.88"/><polygon class="cls-1" points="112 167.94 103.98 167.94 103.98 175.88 72 175.88 72 184 112 184 112 167.94"/><rect class="cls-2" x="103.98" y="160" width="8.02" height="7.94"/><rect x="119.99" y="160" width="31.99" height="15.88"/><polygon class="cls-1" points="160 167.94 151.98 167.94 151.98 175.88 120 175.88 120 184 160 184 160 167.94"/><rect class="cls-2" x="151.98" y="160" width="8.02" height="7.94"/><rect x="-0.01" y="160" width="7.99" height="15.88"/><polygon class="cls-1" points="16 167.94 7.98 167.94 7.98 175.88 -0.01 175.88 -0.01 184 16 184 16 167.94"/><rect class="cls-2" x="7.98" y="160" width="8.02" height="7.94"/><rect x="23.99" y="224" width="31.99" height="15.88"/><polygon class="cls-1" points="64 231.94 55.98 231.94 55.98 239.88 24 239.88 24 248 64 248 64 231.94"/><rect class="cls-2" x="55.98" y="224" width="8.02" height="7.94"/><rect x="71.99" y="224" width="31.99" height="15.88"/><polygon class="cls-1" points="112 231.94 103.98 231.94 103.98 239.88 72 239.88 72 248 112 248 112 231.94"/><rect class="cls-2" x="103.98" y="224" width="8.02" height="7.94"/><rect x="119.99" y="224" width="31.99" height="15.88"/><polygon class="cls-1" points="160 231.94 151.98 231.94 151.98 239.88 120 239.88 120 248 160 248 160 231.94"/><rect class="cls-2" x="151.98" y="224" width="8.02" height="7.94"/><rect x="-0.01" y="224" width="7.99" height="15.88"/><polygon class="cls-1" points="16 231.94 7.98 231.94 7.98 239.88 -0.01 239.88 -0.01 248 16 248 16 231.94"/><rect class="cls-2" x="7.98" y="224" width="8.02" height="7.94"/><rect x="23.99" y="288" width="31.99" height="15.88"/><polygon class="cls-1" points="64 295.94 55.98 295.94 55.98 303.88 24 303.88 24 312 64 312 64 295.94"/><rect class="cls-2" x="55.98" y="288" width="8.02" height="7.94"/><rect x="71.99" y="288" width="31.99" height="15.88"/><polygon class="cls-1" points="112 295.94 103.98 295.94 103.98 303.88 72 303.88 72 312 112 312 112 295.94"/><rect class="cls-2" x="103.98" y="288" width="8.02" height="7.94"/><rect x="119.99" y="288" width="31.99" height="15.88"/><polygon class="cls-1" points="160 295.94 151.98 295.94 151.98 303.88 120 303.88 120 312 160 312 160 295.94"/><rect class="cls-2" x="151.98" y="288" width="8.02" height="7.94"/><rect x="-0.01" y="288" width="7.99" height="15.88"/><polygon class="cls-1" points="16 295.94 7.98 295.94 7.98 303.88 -0.01 303.88 -0.01 312 16 312 16 295.94"/><rect class="cls-2" x="7.98" y="288" width="8.02" height="7.94"/><rect x="47.99" width="31.99" height="15.88"/><polygon class="cls-1" points="88 7.94 79.98 7.94 79.98 15.88 47.99 15.88 47.99 24 88 24 88 7.94"/><rect class="cls-2" x="79.98" width="8.02" height="7.94"/><rect x="95.99" width="31.99" height="15.88"/><polygon class="cls-1" points="136 7.94 127.98 7.94 127.98 15.88 96 15.88 96 24 136 24 136 7.94"/><rect class="cls-2" x="127.98" width="8.02" height="7.94"/><rect x="143.99" width="15.99" height="15.88"/><polygon class="cls-1" points="160 24 144 24 144 15.88 159.98 15.88 160 24"/><rect x="-0.01" y="64" width="31.99" height="15.88"/><polygon class="cls-1" points="40.01 71.94 31.98 71.94 31.98 79.88 -0.01 79.88 -0.01 88 40.01 88 40.01 71.94"/><rect class="cls-2" x="31.98" y="64" width="8.02" height="7.94"/><rect x="47.99" y="64" width="31.99" height="15.88"/><polygon class="cls-1" points="88 71.94 79.98 71.94 79.98 79.88 47.99 79.88 47.99 88 88 88 88 71.94"/><rect class="cls-2" x="79.98" y="64" width="8.02" height="7.94"/><rect x="95.99" y="64" width="31.99" height="15.88"/><polygon class="cls-1" points="136 71.94 127.98 71.94 127.98 79.88 96 79.88 96 88 136 88 136 71.94"/><rect class="cls-2" x="127.98" y="64" width="8.02" height="7.94"/><rect x="143.99" y="64" width="15.99" height="15.88"/><polygon class="cls-1" points="160 88 144 88 144 79.88 159.98 79.88 160 88"/><rect x="-0.01" y="128" width="31.99" height="15.88"/><polygon class="cls-1" points="40.01 135.94 31.98 135.94 31.98 143.88 -0.01 143.88 -0.01 152 40.01 152 40.01 135.94"/><rect class="cls-2" x="31.98" y="128" width="8.02" height="7.94"/><rect x="47.99" y="128" width="31.99" height="15.88"/><polygon class="cls-1" points="88 135.94 79.98 135.94 79.98 143.88 47.99 143.88 47.99 152 88 152 88 135.94"/><rect class="cls-2" x="79.98" y="128" width="8.02" height="7.94"/><rect x="95.99" y="128" width="31.99" height="15.88"/><polygon class="cls-1" points="136 135.94 127.98 135.94 127.98 143.88 96 143.88 96 152 136 152 136 135.94"/><rect class="cls-2" x="127.98" y="128" width="8.02" height="7.94"/><rect x="143.99" y="128" width="15.99" height="15.88"/><polygon class="cls-1" points="160 152 144 152 144 143.88 159.98 143.88 160 152"/><rect x="-0.01" y="192" width="31.99" height="15.88"/><polygon class="cls-1" points="40.01 199.94 31.98 199.94 31.98 207.88 -0.01 207.88 -0.01 216 40.01 216 40.01 199.94"/><rect class="cls-2" x="31.98" y="192" width="8.02" height="7.94"/><rect x="47.99" y="192" width="31.99" height="15.88"/><polygon class="cls-1" points="88 199.94 79.98 199.94 79.98 207.88 47.99 207.88 47.99 216 88 216 88 199.94"/><rect class="cls-2" x="79.98" y="192" width="8.02" height="7.94"/><rect x="95.99" y="192" width="31.99" height="15.88"/><polygon class="cls-1" points="136 199.94 127.98 199.94 127.98 207.88 96 207.88 96 216 136 216 136 199.94"/><rect class="cls-2" x="127.98" y="192" width="8.02" height="7.94"/><rect x="143.99" y="192" width="15.99" height="15.88"/><polygon class="cls-1" points="160 216 144 216 144 207.88 159.98 207.88 160 216"/><rect x="-0.01" y="256" width="31.99" height="15.88"/><polygon class="cls-1" points="40.01 263.94 31.98 263.94 31.98 271.88 -0.01 271.88 -0.01 280 40.01 280 40.01 263.94"/><rect class="cls-2" x="31.98" y="256" width="8.02" height="7.94"/><rect x="47.99" y="256" width="31.99" height="15.88"/><polygon class="cls-1" points="88 263.94 79.98 263.94 79.98 271.88 47.99 271.88 47.99 280 88 280 88 263.94"/><rect class="cls-2" x="79.98" y="256" width="8.02" height="7.94"/><rect x="95.99" y="256" width="31.99" height="15.88"/><polygon class="cls-1" points="136 263.94 127.98 263.94 127.98 271.88 96 271.88 96 280 136 280 136 263.94"/><rect class="cls-2" x="127.98" y="256" width="8.02" height="7.94"/><rect x="143.99" y="256" width="15.99" height="15.88"/><polygon class="cls-1" points="160 280 144 280 144 271.88 159.98 271.88 160 280"/></svg>