<svg id="Calque_1" data-name="Calque 1" xmlns="http://www.w3.org/2000/svg" viewBox="0 0 160 320"><defs><style>.cls-1{opacity:0.5;}</style></defs><path class="cls-1" d="M0,0l160,0V320L0,320ZM72,16H56.45V32h-8v7.5h-8V48H32v8H16V72H8V88.14h8v15.78H32v8.59h7.5V128H32v8H16v16H8v15.69h8v16.18H32v8.62h7.5V208H32v8H16v16H8.24v16H16v15.8H32V272h8v8.26h8V288h8v15.87H72v7.89H88V304H104V288h8v-8h8v-8h8v-8h16V248h8V232h-8V216H128v-8h-8.1V192.12H128v-8h16v-16h8V152h-8V136H128v-8h-8.36V112.14H128v-8h16v-16h7.76V72H144V56H128V48h-8V40h-8V32h-8V16H88V8H72Z"/><polygon points="71.95 0.03 71.95 8.27 55.95 8.27 55.95 16.02 47.95 16.02 47.95 32.02 31.95 32.02 31.95 48.02 15.95 48.02 15.95 56.02 7.95 56.02 7.95 72.02 0 72.02 0 0.03 71.95 0.03"/><polygon points="159.97 71.99 151.73 71.99 151.73 55.99 143.97 55.99 143.97 47.99 127.97 47.99 127.97 32 111.97 32 111.97 16 103.97 16 103.97 8 87.97 8 87.97 0.05 159.97 0.05 159.97 71.99"/><polygon points="88.03 319.97 88.03 311.74 104.03 311.74 104.03 303.98 112.03 303.98 112.03 287.98 128.03 287.98 128.03 271.98 144.03 271.98 144.03 263.98 152.03 263.98 152.03 247.99 159.97 247.99 159.97 319.97 88.03 319.97"/><polygon points="0 248.01 8.24 248.01 8.24 264.01 16 264.01 16 272.01 32 272.01 32 288 48 288 48 304 56 304 56 312 72 312 72 319.95 0 319.95 0 248.01"/><polygon points="0 88.14 7.95 88.14 7.95 104.01 15.95 104.01 15.95 112.01 31.95 112.01 31.95 128 15.97 128 15.97 136 7.95 136 7.95 152 0 152 0 88.14"/><polygon points="0 168.13 7.95 168.13 7.95 184 15.95 184 15.95 192 31.95 192 31.95 207.99 15.97 207.99 15.97 215.99 7.95 215.99 7.95 231.99 0 231.99 0 168.13"/><polygon points="159.95 231.99 152 231.99 152 216.12 144 216.12 144 208.12 128 208.12 128 192.13 143.97 192.13 143.97 184.13 152 184.13 152 168.13 159.95 168.13 159.95 231.99"/><polygon points="159.95 152 152 152 152 136.13 144 136.13 144 128.14 128 128.14 128 112.14 143.97 112.14 143.97 104.14 152 104.14 152 88.14 159.95 88.14 159.95 152"/></svg>