<svg id="Calque_1" data-name="Calque 1" xmlns="http://www.w3.org/2000/svg" viewBox="0 0 160 320"><defs><style>.cls-1{opacity:0.5;}</style></defs><polygon class="cls-1" points="159.98 320 159.98 304 152.02 304 152.02 288 144.02 288 144.02 272 136.02 272 136.02 256 128.02 256 128.02 240.17 120.02 240.17 120.02 224 112.02 224 112.02 208 104.02 208 104.02 192 96.02 192 96.02 175.8 88.02 175.8 88.02 160.15 80.02 160.15 80.02 143.91 72.02 143.91 72.02 128 64.02 128 64.02 112 56.02 112 56.02 96.17 48.02 96.17 48.02 80.13 40.02 80.13 40.02 64.09 32.02 64.09 32.02 48 24.02 48 24.02 32 15.98 32 15.98 16 8.02 16 8.02 0 0.02 0 0.02 320 159.98 320"/><polygon points="152.02 320 152.02 304 144.02 304 144.02 288 136.02 288 136.02 272 128.02 272 128.02 256 120.02 256 120.02 240 112.02 240 112.02 224 104.02 224 104.02 208 96.02 208 96.02 192 88.02 192 88.02 176.1 80.02 176.1 80.02 160 72.02 160 72.02 144 64.02 144 64.02 128 56.02 128 56.02 112 48.02 112 48.02 96 40.02 96 40.02 80 32.02 80 32.02 64 24.02 64 24.02 48 15.98 48 15.98 32 8.02 32 8.02 16 0.02 16 0.02 320 152.02 320"/></svg>