<svg id="Calque_1" data-name="Calque 1" xmlns="http://www.w3.org/2000/svg" viewBox="0 0 160 320"><defs><style>.cls-1{opacity:0.5;}</style></defs><polygon class="cls-1" points="0.02 0 0.02 16 7.98 16 7.98 32 15.98 32 15.98 48 23.98 48 23.98 64 31.98 64 31.98 79.83 39.98 79.83 39.98 96 47.98 96 47.98 112 55.98 112 55.98 128 63.98 128 63.98 144.2 71.98 144.2 71.98 159.85 79.98 159.85 79.98 176.09 87.98 176.09 87.98 192 95.98 192 95.98 208 103.98 208 103.98 223.83 111.98 223.83 111.98 239.87 119.98 239.87 119.98 255.91 127.98 255.91 127.98 272 135.98 272 135.98 288 144.02 288 144.02 304 151.98 304 151.98 320 159.98 320 159.98 0 0.02 0"/><polygon points="7.98 0 7.98 16 15.98 16 15.98 32 23.98 32 23.98 48 31.98 48 31.98 64 39.98 64 39.98 80 47.98 80 47.98 96 55.98 96 55.98 112 63.98 112 63.98 128 71.98 128 71.98 143.9 79.98 143.9 79.98 160 87.98 160 87.98 176 95.98 176 95.98 192 103.98 192 103.98 208 111.98 208 111.98 224 119.98 224 119.98 240 127.98 240 127.98 256 135.98 256 135.98 272 144.02 272 144.02 288 151.98 288 151.98 304 159.98 304 159.98 0 7.98 0"/></svg>