<svg id="Calque_1" data-name="Calque 1" xmlns="http://www.w3.org/2000/svg" viewBox="0 0 160 320"><defs><style>.cls-1{opacity:0.25;}</style></defs><polygon class="cls-1" points="-0.03 0 -0.03 64 7.97 64 7.97 80 15.97 80 15.97 96.04 23.97 96.04 23.97 112 31.97 112 31.97 128 39.97 128 39.97 144 47.97 144 47.97 160 55.97 160 55.97 176 63.97 176 63.97 192 71.97 192 71.97 208 79.97 208 79.97 224 87.97 224 87.97 240 95.97 240 95.97 256 103.97 256 103.97 272 111.97 272 111.97 288 119.97 288 119.97 304 127.97 304 127.97 320 159.97 320 159.97 256 151.55 256 151.55 240 143.97 240 143.97 224 135.97 224 135.97 208 127.97 208 127.97 192 119.97 192 119.97 176 111.97 176 111.97 160 103.97 160 103.97 144 96.18 144 96.18 128 87.97 128 87.97 112 79.97 112 79.97 96 71.72 96 71.72 80 63.97 80 63.97 64 55.97 64 55.97 48 47.76 48 47.76 32 39.97 32 39.97 16 31.97 16 31.97 0 -0.03 0"/><polygon points="159.97 272 151.55 272 151.55 256 143.97 256 143.97 240 135.97 240 135.97 224 127.97 224 127.97 208 119.97 208 119.97 192 111.97 192 111.97 176 103.97 176 103.97 160 96.18 160 96.18 144 87.97 144 87.97 128 79.97 128 79.97 112 71.72 112 71.72 96 64.09 96 64.09 80 55.97 80 55.97 64 47.85 64 47.85 48 39.97 48 39.97 32 31.97 32 31.97 16 23.97 16 23.97 0 -0.03 0 -0.03 47.85 7.97 47.85 7.97 64 15.97 64 15.97 80 23.97 80 23.97 96 31.97 96 31.97 112 39.97 112 39.97 128 47.97 128 47.97 144 55.97 144 55.97 160 63.97 160 63.97 176 71.97 176 71.97 192 79.97 192 79.97 208 87.97 208 87.97 224 95.97 224 95.97 240 103.97 240 103.97 256 111.97 256 111.97 272 119.97 272 119.97 288 127.97 288 127.97 304 135.86 304 135.86 320 159.97 320 159.97 272"/></svg>