<svg id="Calque_1" data-name="Calque 1" xmlns="http://www.w3.org/2000/svg" viewBox="0 0 160 320"><defs><style>.cls-1{opacity:0.25;}</style></defs><polygon class="cls-1" points="160 0 160 64 152 64 152 80 144 80 144 96.04 136 96.04 136 112 128 112 128 128 120 128 120 144 112 144 112 160 104 160 104 176 96 176 96 192 88 192 88 208 80 208 80 224 72 224 72 240 64 240 64 256 56 256 56 272 48 272 48 288 40 288 40 304 32 304 32 320 0 320 0 256 8.42 256 8.42 240 16 240 16 224 24 224 24 208 32 208 32 192 40 192 40 176 48 176 48 160 56 160 56 144 63.79 144 63.79 128 72 128 72 112 80 112 80 96 88.25 96 88.25 80 96 80 96 64 104 64 104 48 112.22 48 112.22 32 120 32 120 16 128 16 128 0 160 0"/><polygon points="0 272 8.42 272 8.42 256 16 256 16 240 24 240 24 224 32 224 32 208 40 208 40 192 48 192 48 176 56 176 56 160 63.79 160 63.79 144 72 144 72 128 80 128 80 112 88.25 112 88.25 96 95.88 96 95.88 80 104 80 104 64 112.12 64 112.12 48 120 48 120 32 128 32 128 16 136 16 136 0 160 0 160 47.85 152 47.85 152 64 144 64 144 80 136 80 136 96 128 96 128 112 120 112 120 128 112 128 112 144 104 144 104 160 96 160 96 176 88 176 88 192 80 192 80 208 72 208 72 224 64 224 64 240 56 240 56 256 48 256 48 272 40 272 40 288 32 288 32 304 24.11 304 24.11 320 0 320 0 272"/></svg>