<svg id="Calque_1" data-name="Calque 1" xmlns="http://www.w3.org/2000/svg" viewBox="0 0 160 320"><defs><style>.cls-1{opacity:0.5;}</style></defs><polygon class="cls-1" points="160 24 160 0 0 0 0 24 8 24 8 39.87 16 39.87 16 56 24 56 24 72 32 72 32 88 40 88 40 104 48 104 48 120 56 120 56 136 64 136 64 152 72 152 72 160 88 160 88 152 96.22 152 96.22 136 104.5 136 104.5 120 111.5 120 111.5 104 120.5 104 120.5 88 128.5 88 128.5 72 135.5 72 135.5 56 143.5 56 143.5 40 151.5 40 151.5 23.86 160 24"/><polygon points="160 0 160 8.01 151.91 8.01 151.91 23.86 143.99 23.86 143.99 40 135.87 40 135.87 56 128 56 128 72 119.83 72 119.83 88 112 88 112 104 104 104 104 120 95.76 120 95.76 136 88 136 88 152 72 152 72 136 64 136 64 120.02 56 120.02 56 104.08 48 104.08 48 88 40 88 40 72 32 72 32 56 24 56 24 40 16 40 16 24 8 24 8 7.91 0 8 0 0 160 0"/></svg>