<svg id="Calque_1" data-name="Calque 1" xmlns="http://www.w3.org/2000/svg" viewBox="0 0 160 320"><defs><style>.cls-1{opacity:0.5;}</style></defs><polygon class="cls-1" points="159.98 0 159.98 16 152.02 16 152.02 32 144.02 32 144.02 48 136.02 48 136.02 64 128.02 64 128.02 79.83 120.02 79.83 120.02 96 112.02 96 112.02 112 104.02 112 104.02 128 96.02 128 96.02 144.2 88.02 144.2 88.02 159.85 80.02 159.85 80.02 176.09 72.02 176.09 72.02 192 64.02 192 64.02 208 56.02 208 56.02 223.83 48.02 223.83 48.02 239.87 40.02 239.87 40.02 255.91 32.02 255.91 32.02 272 24.02 272 24.02 288 15.98 288 15.98 304 8.02 304 8.02 320 0.02 320 0.02 0 159.98 0"/><polygon points="152.02 0 152.02 16 144.02 16 144.02 32 136.02 32 136.02 48 128.02 48 128.02 64 120.02 64 120.02 80 112.02 80 112.02 96 104.02 96 104.02 112 96.02 112 96.02 128 88.02 128 88.02 143.9 80.02 143.9 80.02 160 72.02 160 72.02 176 64.02 176 64.02 192 56.02 192 56.02 208 48.02 208 48.02 224 40.02 224 40.02 240 32.02 240 32.02 256 24.02 256 24.02 272 15.98 272 15.98 288 8.02 288 8.02 304 0.02 304 0.02 0 152.02 0"/></svg>