<svg id="Calque_1" data-name="Calque 1" xmlns="http://www.w3.org/2000/svg" viewBox="0 0 160 320"><defs><style>.cls-1{opacity:0.5;}</style></defs><polygon class="cls-1" points="0.02 320 0.02 304 7.98 304 7.98 288 15.98 288 15.98 272 23.98 272 23.98 256 31.98 256 31.98 240.17 39.98 240.17 39.98 224 47.98 224 47.98 208 55.98 208 55.98 192 63.98 192 63.98 175.8 71.98 175.8 71.98 160.15 79.98 160.15 79.98 143.91 87.98 143.91 87.98 128 95.98 128 95.98 112 103.98 112 103.98 96.17 111.98 96.17 111.98 80.13 119.98 80.13 119.98 64.09 127.98 64.09 127.98 48 135.98 48 135.98 32 144.02 32 144.02 16 151.98 16 151.98 0 159.98 0 159.98 320 0.02 320"/><polygon points="7.98 320 7.98 304 15.98 304 15.98 288 23.98 288 23.98 272 31.98 272 31.98 256 39.98 256 39.98 240 47.98 240 47.98 224 55.98 224 55.98 208 63.98 208 63.98 192 71.98 192 71.98 176.1 79.98 176.1 79.98 160 87.98 160 87.98 144 95.98 144 95.98 128 103.98 128 103.98 112 111.98 112 111.98 96 119.98 96 119.98 80 127.98 80 127.98 64 135.98 64 135.98 48 144.02 48 144.02 32 151.98 32 151.98 16 159.98 16 159.98 320 7.98 320"/></svg>