<svg id="Calque_1" data-name="Calque 1" xmlns="http://www.w3.org/2000/svg" viewBox="0 0 160 320"><defs><style>.cls-1{opacity:0.5;}</style></defs><polygon class="cls-1" points="64 135.89 96 135.89 96 144 104 144 104 176 96 176 96 184 64 184 64 176 55.96 176 55.96 144 64 144 64 135.89"/><path class="cls-1" d="M32.15,96H48v8h8v8h8V96h8V88H88v8h8v16h8v-8h8V96h16v8h8v8h-8v16.13h7.88V120H144v8h8v16h-8v8H128v16h16v8h8v16h-8v8h-8v-8h-8v16h8v8h-8v8H112v-8h-8v-8H96v16H88v8H72v-8H64.17V208H56v8H48v8H32.15v-8H24v-8h8V192H24v8H16v-8H8V176h8v-8H32V152H16v-8H8V128h8v-8h8.13v8H32V112H24v-8h8ZM48,136v48h8v8h48v-8h8V136h-8v-8H56v7.89Z"/><path d="M32,104H48v8H72V96H88v16h24v-8h16v8h-8v8h8v16h7.88v-8H144v16H128v32h16v16h-8v-8h-8v16h-8v8h8v8H112v-8H88v16H72V208H48v8H32v-8h8v-8H32V184H24v8H16V176H32V144H16V128h8v8h8V120h8v-8H32Zm8,32v48h8v8h7.86v8H104v-8h8v-8h8V136h-7.89v-8h-8.22v-8H56.25v8H48v8Z"/><rect x="64" y="144" width="32" height="32"/></svg>