<svg id="Calque_1" data-name="Calque 1" xmlns="http://www.w3.org/2000/svg" viewBox="0 0 160 320"><defs><style>.cls-1{opacity:0.5;}</style></defs><rect x="111.99" y="104" width="16" height="16"/><rect x="127.99" y="160" width="8" height="16"/><polygon points="95.99 128 95.99 136 87.99 136 87.99 144 111.99 144 111.99 152 119.99 152 119.99 160 127.99 160 127.99 136 103.99 136 103.99 128 95.99 128"/><polygon points="87.99 128 87.99 136 55.99 136 55.99 152 47.99 152 47.99 160 39.99 160 39.99 184 47.99 184 47.99 200 55.99 200 55.99 208 63.99 208 63.99 216 135.99 216 135.99 224 32.1 224 32.1 216 23.99 216 23.99 128 31.99 128 31.99 120 71.99 120 71.99 128 87.99 128"/><polygon class="cls-1" points="111.99 96 111.99 128 127.99 128 127.99 104 119.99 104 119.99 96 111.99 96"/><polygon class="cls-1" points="127.99 184 135.99 184 135.99 176 144.01 176 144.01 160 135.99 160 135.99 136 111.99 136 111.99 128 103.99 128 103.99 120 96.08 120 96.08 128 79.99 128 79.99 120 71.99 120 71.99 112 39.99 112 39.99 120 23.99 120 23.99 128 15.99 128 15.99 216 23.99 216 23.99 224 40.02 224 40.02 232 127.99 232 127.99 224 144.01 224 144.01 207.87 127.99 207.87 127.99 216 80 216 80 208 63.99 208 63.99 200 55.99 200 55.99 192 48.21 192 48.21 152 55.99 152 55.99 144 103.77 144 103.77 152 111.99 152 111.99 160 119.99 160 119.99 168 127.99 168 127.99 184"/></svg>