<svg id="Calque_1" data-name="Calque 1" xmlns="http://www.w3.org/2000/svg" viewBox="0 0 160 320"><defs><style>.cls-1{opacity:0.5;}</style></defs><polygon points="72 72 88 72 88 88 95.74 88 95.74 104 103.76 104 103.76 120 112 120 112 136 120 136 120 152 128 152 128 168 120 168 120 184 112 184 112 200 104 200 104 216 96 216 96 232 87.91 232 87.91 248 72 248 72 232 64 232 64 216 56 216 56 200 48 200 48 184.39 40 184.39 40 167.56 32 167.56 32 152.3 40 152.3 40 136 48 136 48 120 56 120 56 104 64 104 64 88 72 88 72 72"/><polygon class="cls-1" points="72 64 88 64 88 72 96 72 96 88 104 88 104 104 111.91 104 111.91 120 120 120 120 136 128 136 128 152 136 152 136 168 128 168 128 183.94 120 183.94 120 200 112 200 112 216 104 216 104 232 96 232 96 248 87.91 248 87.91 256 72 256 72 248 64 248 64 232 56 232 56 216 48 216 48 200 40 200 40 184 32 184 32 168.15 24 168.15 24 152 32 152 32 136 40 136 40 120 48 120 48 104 56 104 56 88 64 88 64 72 72 72 72 64"/></svg>