<svg id="Calque_1" data-name="Calque 1" xmlns="http://www.w3.org/2000/svg" viewBox="0 0 160 320"><defs><style>.cls-1{opacity:0.5;}</style></defs><path d="M51.13,96h57.74v64H51.13Zm36.1,48v-8H72.78v8H58.45v8h43.16v-8Zm-28.78-8H72.78v-8H58.45Zm28.78,0h14.38v-8H87.23Z"/><rect class="cls-1" x="58.44" y="128.01" width="14.33" height="8"/><rect class="cls-1" x="87.22" y="128.01" width="14.39" height="8"/><polygon class="cls-1" points="101.61 143.99 101.61 152.01 58.44 152.01 58.44 143.99 72.77 143.99 72.77 136.01 87.22 136.01 87.22 144.01 101.61 143.99"/><polygon class="cls-1" points="35.79 168 43.91 168 43.91 176 58.35 176 58.35 184 72.78 184 72.78 192 87.22 192 87.22 184 101.65 184 101.65 176 116.09 176 116.09 168 130.53 168 130.53 184 116.09 184 116.09 192 101.65 192 101.65 199.98 108.87 199.98 108.87 208 130.98 208 130.98 221 112.74 221 108.87 216 105.26 212 94.44 208 89.92 206 67.37 206 65.56 207.96 64.66 209 51.13 216 47.52 219 27.67 221 28.57 208 51.13 208 51.13 199.98 58.35 199.98 58.35 192 43.91 192 43.91 184 28.18 184 28.18 170.25 35.79 168"/><polygon points="22.3 160 36.69 160 36.69 176 29.47 176 29.47 184 22.26 184 22.3 160"/><rect x="36.69" y="176" width="14.44" height="8"/><rect x="51.13" y="184" width="14.44" height="8"/><polygon points="65.56 207.96 65.56 192 72.78 192 72.78 199.98 87.22 199.98 87.22 192 94.44 192 94.44 207.96 65.56 207.96"/><rect x="94.44" y="184" width="14.44" height="8"/><rect x="108.87" y="176" width="14.44" height="8"/><polygon points="123.31 160 137.74 160 137.74 184 130.53 184 130.53 176 123.31 176 123.31 160"/><polygon points="22.26 208 29.47 208 29.47 216 51.13 216 51.13 224 36.69 224 36.69 232 22.26 232 22.26 208"/><rect x="51.13" y="207.96" width="14.44" height="8.04"/><rect x="94.44" y="208" width="14.44" height="8"/><polygon points="130.53 208 137.74 208 137.74 232 123.31 232 123.31 224 108.87 224 108.87 216 130.62 216 130.53 208"/></svg>