<svg id="Calque_1" data-name="Calque 1" xmlns="http://www.w3.org/2000/svg" viewBox="0 0 160 320"><defs><style>.cls-1{opacity:0.5;}</style></defs><polygon class="cls-1" points="0 296 0 320 160 320 160 296 152 296 152 280.13 144 280.13 144 264 136 264 136 248 128 248 128 232 120 232 120 216 112 216 112 200 104 200 104 184 96 184 96 168 88 168 88 160 72 160 72 168 63.78 168 63.78 184 55.5 184 55.5 200 48.5 200 48.5 216 39.5 216 39.5 232 31.5 232 31.5 248 24.5 248 24.5 264 16.5 264 16.5 280 8.5 280 8.5 296.14 0 296"/><polygon points="0 320 0 311.99 8.09 311.99 8.09 296.14 16.01 296.14 16.01 280 24.13 280 24.13 264 32 264 32 248 40.17 248 40.17 232 48 232 48 216 56 216 56 200 64.24 200 64.24 184 72 184 72 168 88 168 88 184 96 184 96 199.98 104 199.98 104 215.92 112 215.92 112 232 120 232 120 248 128 248 128 264 136 264 136 280 144 280 144 296 152 296 152 312.09 160 312 160 320 0 320"/></svg>