<svg id="Calque_1" data-name="Calque 1" xmlns="http://www.w3.org/2000/svg" viewBox="0 0 160 320"><defs><style>.cls-1{opacity:0.5;}</style></defs><polygon class="cls-1" points="0 288.02 8 288.02 8 272 16 272 16 264 31.9 264 31.9 272 40 272 40 288 48 288 48 304 56 304 56 288 64 288 64 272 72 272 72 264 88 264 88 272 96 272 96 288 104 288 104 304 112 304 112 288 120 288 120 272 128 272 128 264 144.06 264 144.06 272 152 272 152 288 160 288 160 320 0 320 0 288.02"/><polygon points="0 320 0 304 8 304 8 288 16 288 16 272 31.71 272 31.71 288 40 288 40 304 48 304 48 312 56 312 56 304.06 64 304.06 64 288 72 288 72 272 88 272 88 288 96 288 96 304 104 304 104 312 112 312 112 304 120 304 120 288 128 288 128 272 144 272 144 288 152 288 152 304 160 304 160 320 0 320"/></svg>